:FULLY-SPECIFIED
:FORCE-ALL-JOINTS-BE-3DOF
:DEGREES
714
root -11.5886 13.9414 -38.2972 151.863 -61.1656 -147.39
lfemur -64.3125 24.8312 -0.502744
ltibia 75.0554 -0 0
lfoot -8.13245 -7.74622 -5.50569e-05
ltoes -3.5833 0 0
rfemur 8.70589 -10.1202 11.846
rtibia 41.6035 -0 0
rfoot -25.1237 -27.507 -0.000563975
rtoes -25.4536 0 0
lowerback 12.283 1.43009 8.87931
upperback -1.71672 3.48092 5.72661
thorax -8.62349 1.28378 0.504825
lowerneck -4.66774 4.81892 0.533759
upperneck 4.0976 6.32241 1.37802
head 2.05146 3.19399 0.544527
lclavicle 1.64124e-14 -8.82715e-15 1.30637e-30
lhumerus 62.4794 15.9035 107.494
lradius 11.8411 -0 0
lwrist -77.7299 0 0
lhand -33.492 36.2525 -0.00426689
lfingers 7.12502 -0 0
lthumb -6.68916 66.1261 -0.00403406
rclavicle 1.64124e-14 -8.82715e-15 1.30637e-30
rhumerus -75.4352 19.0809 -95.5501
rradius 114.961 -0 0
rwrist -66.4876 0 0
rhand -9.20893 -40.924 0.324841
rfingers 7.12502 -0 0
rthumb 16.7364 -70.1154 0.342416
715
root -11.6028 13.9362 -38.3022 151.882 -61.2118 -147.331
lfemur -64.4578 24.8626 -0.56208
ltibia 75.1897 -0 0
lfoot -8.2067 -7.74575 -5.75572e-05
ltoes -3.62903 0 0
rfemur 8.76835 -10.1469 11.837
rtibia 41.4852 -0 0
rfoot -25.0995 -27.5218 -0.000589586
rtoes -25.7567 0 0
lowerback 12.248 1.4265 8.88477
upperback -1.71913 3.47251 5.73103
thorax -8.60635 1.28007 0.508997
lowerneck -4.6145 4.82813 0.581108
upperneck 4.07031 6.33498 1.32537
head 2.03634 3.19945 0.518538
lclavicle 1.71619e-14 -9.93225e-15 1.3657e-30
lhumerus 62.4946 15.8536 107.383
lradius 11.8489 -0 0
lwrist -77.7315 0 0
lhand -33.4486 36.1901 -0.00446067
lfingers 7.12502 -0 0
lthumb -6.64727 66.065 -0.00421726
rclavicle 1.71619e-14 -9.93225e-15 1.3657e-30
rhumerus -75.4397 19.0765 -95.5762
rradius 114.844 -0 0
rwrist -66.2056 0 0
rhand -8.75014 -40.4745 0.339622
rfingers 7.12502 -0 0
rthumb 17.1778 -69.6228 0.357999
716
root -11.6172 13.9309 -38.3074 151.901 -61.2588 -147.271
lfemur -64.6056 24.8944 -0.62255
ltibia 75.3264 -0 0
lfoot -8.28224 -7.74528 -5.94757e-05
ltoes -3.67554 0 0
rfemur 8.8319 -10.174 11.8277
rtibia 41.3648 -0 0
rfoot -25.075 -27.5368 -0.000609237
rtoes -26.0652 0 0
lowerback 12.2124 1.42286 8.89032
upperback -1.72159 3.46395 5.73553
thorax -8.5889 1.2763 0.513239
lowerneck -4.56032 4.83745 0.629287
upperneck 4.04253 6.34774 1.2718
head 2.02095 3.20501 0.492097
lclavicle 1.79243e-14 -1.10565e-14 1.41122e-30
lhumerus 62.5101 15.8028 107.271
lradius 11.8569 -0 0
lwrist -77.733 0 0
lhand -33.4044 36.1267 -0.00460935
lfingers 7.12502 -0 0
lthumb -6.60465 66.0029 -0.00435783
rclavicle 1.79243e-14 -1.10565e-14 1.41122e-30
rhumerus -75.4442 19.0719 -95.6027
rradius 114.725 -0 0
rwrist -65.9187 0 0
rhand -8.2833 -40.0171 0.350965
rfingers 7.12502 -0 0
rthumb 17.6268 -69.1216 0.369957
717
root -11.6318 13.9255 -38.3126 151.92 -61.3063 -147.21
lfemur -64.7553 24.9264 -0.683862
ltibia 75.4647 -0 0
lfoot -8.3587 -7.74479 -6.07754e-05
ltoes -3.72262 0 0
rfemur 8.89623 -10.2014 11.8183
rtibia 41.243 -0 0
rfoot -25.0501 -27.5521 -0.00062255
rtoes -26.3774 0 0
lowerback 12.1764 1.41918 8.89594
upperback -1.72407 3.45528 5.74009
thorax -8.57125 1.27248 0.517532
lowerneck -4.50549 4.84684 0.678062
upperneck 4.0144 6.36063 1.21757
head 2.00538 3.21062 0.465333
lclavicle 1.8696e-14 -1.21944e-14 1.44206e-30
lhumerus 62.526 15.7515 107.158
lradius 11.8649 -0 0
lwrist -77.7346 0 0
lhand -33.3598 36.0625 -0.00471008
lfingers 7.12502 -0 0
lthumb -6.56152 65.94 -0.00445306
rclavicle 1.8696e-14 -1.21944e-14 1.44206e-30
rhumerus -75.4488 19.0672 -95.6295
rradius 114.605 -0 0
rwrist -65.6283 0 0
rhand -7.8107 -39.5541 0.35865
rfingers 7.12502 -0 0
rthumb 18.0815 -68.6142 0.378059
718
root -11.6466 13.9201 -38.3178 151.94 -61.3543 -147.148
lfemur -64.9062 24.9585 -0.745726
ltibia 75.604 -0 0
lfoot -8.43572 -7.7443 -6.14315e-05
ltoes -3.77004 0 0
rfemur 8.96104 -10.2291 11.8088
rtibia 41.1203 -0 0
rfoot -25.0251 -27.5675 -0.00062927
rtoes -26.6918 0 0
lowerback 12.1401 1.41547 8.9016
upperback -1.72658 3.44656 5.74468
thorax -8.55347 1.26863 0.521855
lowerneck -4.45024 4.85625 0.727198
upperneck 3.98606 6.37359 1.16294
head 1.98969 3.21626 0.438374
lclavicle 1.94733e-14 -1.33405e-14 1.45762e-30
lhumerus 62.542 15.6998 107.043
lradius 11.873 -0 0
lwrist -77.7362 0 0
lhand -33.3148 35.9979 -0.00476093
lfingers 7.12502 -0 0
lthumb -6.51807 65.8767 -0.00450114
rclavicle 1.94733e-14 -1.33405e-14 1.45762e-30
rhumerus -75.4535 19.0626 -95.6566
rradius 114.483 -0 0
rwrist -65.3358 0 0
rhand -7.33464 -39.0877 0.36253
rfingers 7.12502 -0 0
rthumb 18.5394 -68.103 0.382149
719
root -11.6613 13.9146 -38.323 151.959 -61.4023 -147.086
lfemur -65.0575 24.9905 -0.807847
ltibia 75.7437 -0 0
lfoot -8.51291 -7.74382 -6.14315e-05
ltoes -3.81758 0 0
rfemur 9.02601 -10.2567 11.7993
rtibia 40.9973 -0 0
rfoot -24.9999 -27.5828 -0.00062927
rtoes -27.007 0 0
lowerback 12.1037 1.41176 8.90728
upperback -1.72909 3.43781 5.74928
thorax -8.53564 1.26477 0.526187
lowerneck -4.39486 4.86563 0.776461
upperneck 3.95764 6.38656 1.10817
head 1.97396 3.22191 0.411349
lclavicle 2.02525e-14 -1.44893e-14 1.45762e-30
lhumerus 62.5582 15.648 106.928
lradius 11.8811 -0 0
lwrist -77.7379 0 0
lhand -33.2696 35.933 -0.00476093
lfingers 7.12502 -0 0
lthumb -6.47453 65.8132 -0.00450114
rclavicle 2.02525e-14 -1.44893e-14 1.45762e-30
rhumerus -75.4582 19.0579 -95.6837
rradius 114.362 -0 0
rwrist -65.0427 0 0
rhand -6.85744 -38.6202 0.36253
rfingers 7.12502 -0 0
rthumb 18.9985 -67.5907 0.382149
720
root -11.6761 13.9092 -38.3283 151.978 -61.4503 -147.025
lfemur -65.2085 25.0223 -0.869929
ltibia 75.883 -0 0
lfoot -8.58993 -7.74333 -6.07754e-05
ltoes -3.865 0 0
rfemur 9.09084 -10.2843 11.7897
rtibia 40.8746 -0 0
rfoot -24.9749 -27.5982 -0.00062255
rtoes -27.3214 0 0
lowerback 12.0675 1.40806 8.91295
upperback -1.73159 3.42909 5.75387
thorax -8.51786 1.26092 0.530508
lowerneck -4.3396 4.87495 0.825617
upperneck 3.92927 6.39946 1.05353
head 1.95826 3.22754 0.384387
lclavicle 2.10298e-14 -1.56355e-14 1.44206e-30
lhumerus 62.5744 15.5964 106.814
lradius 11.8892 -0 0
lwrist -77.7395 0 0
lhand -33.2246 35.8684 -0.00471008
lfingers 7.12502 -0 0
lthumb -6.43108 65.7499 -0.00445306
rclavicle 2.10298e-14 -1.56355e-14 1.44206e-30
rhumerus -75.4628 19.0532 -95.7107
rradius 114.24 -0 0
rwrist -64.7502 0 0
rhand -6.38139 -38.1538 0.35865
rfingers 7.12502 -0 0
rthumb 19.4564 -67.0795 0.378059
721
root -11.6907 13.9038 -38.3334 151.997 -61.4979 -146.963
lfemur -65.3585 25.0538 -0.931674
ltibia 76.0213 -0 0
lfoot -8.66639 -7.74284 -5.94757e-05
ltoes -3.91208 0 0
rfemur 9.15521 -10.3117 11.7802
rtibia 40.7528 -0 0
rfoot -24.95 -27.6135 -0.000609237
rtoes -27.6336 0 0
lowerback 12.0314 1.40439 8.91858
upperback -1.73408 3.42043 5.75843
thorax -8.50021 1.25709 0.534796
lowerneck -4.28473 4.88415 0.87443
upperneck 3.90109 6.41224 0.999269
head 1.94268 3.23312 0.357616
lclavicle 2.18015e-14 -1.67734e-14 1.41122e-30
lhumerus 62.5907 15.5452 106.7
lradius 11.8972 -0 0
lwrist -77.7411 0 0
lhand -33.18 35.8042 -0.00460935
lfingers 7.12502 -0 0
lthumb -6.38795 65.687 -0.00435783
rclavicle 2.18015e-14 -1.67734e-14 1.41122e-30
rhumerus -75.4674 19.0486 -95.7375
rradius 114.12 -0 0
rwrist -64.4598 0 0
rhand -5.90879 -37.6908 0.350965
rfingers 7.12502 -0 0
rthumb 19.9111 -66.5721 0.369957
